<svg aria-hidden="true" style="position: absolute; width: 0; height: 0; overflow: hidden;" version="1.1" xmlns="http://www.w3.org/2000/svg" xmlns:xlink="http://www.w3.org/1999/xlink">
<defs>
<symbol id="icon-linkedin" viewBox="0 0 32 32">
<path fill="#42446e" style="fill: var(--color1, #42446e)" d="M16 0.64c-8.483 0-15.36 6.877-15.36 15.36s6.877 15.36 15.36 15.36c8.483 0 15.36-6.877 15.36-15.36s-6.877-15.36-15.36-15.36zM12.24 22.366h-3.11v-10.010h3.11v10.010zM10.666 11.128c-0.982 0-1.618-0.696-1.618-1.557 0-0.878 0.654-1.554 1.658-1.554s1.618 0.675 1.637 1.554c0 0.861-0.634 1.557-1.677 1.557zM23.6 22.366h-3.11v-5.547c0-1.291-0.451-2.168-1.576-2.168-0.859 0-1.37 0.594-1.595 1.165-0.083 0.203-0.104 0.491-0.104 0.778v5.771h-3.112v-6.816c0-1.25-0.040-2.294-0.082-3.194h2.702l0.142 1.39h0.062c0.41-0.653 1.413-1.616 3.091-1.616 2.046 0 3.581 1.371 3.581 4.318v5.918z"></path>
</symbol>
<symbol id="icon-github" viewBox="0 0 32 32">
<path fill="#42446e" style="fill: var(--color1, #42446e)" d="M16 0c-8.84 0-16 7.16-16 16 0 7.080 4.58 13.060 10.94 15.18 0.8 0.14 1.1-0.34 1.1-0.76 0-0.38-0.020-1.64-0.020-2.98-4.020 0.74-5.060-0.98-5.38-1.88-0.18-0.46-0.96-1.88-1.64-2.26-0.56-0.3-1.36-1.040-0.020-1.060 1.26-0.020 2.16 1.16 2.46 1.64 1.44 2.42 3.74 1.74 4.66 1.32 0.14-1.040 0.56-1.74 1.020-2.14-3.56-0.4-7.28-1.78-7.28-7.9 0-1.74 0.62-3.18 1.64-4.3-0.16-0.4-0.72-2.040 0.16-4.24 0 0 1.34-0.42 4.4 1.64 1.28-0.36 2.64-0.54 4-0.54s2.72 0.18 4 0.54c3.060-2.080 4.4-1.64 4.4-1.64 0.88 2.2 0.32 3.84 0.16 4.24 1.020 1.12 1.64 2.54 1.64 4.3 0 6.14-3.74 7.5-7.3 7.9 0.58 0.5 1.080 1.46 1.080 2.96 0 2.14-0.020 3.86-0.020 4.4 0 0.42 0.3 0.92 1.1 0.76 3.176-1.072 5.936-3.114 7.892-5.837s3.007-5.991 3.008-9.343c0-8.84-7.16-16-16-16z"></path>
</symbol>
<symbol id="icon-vscode" viewBox="0 0 32 32">
<path fill="#0065a9" style="fill: var(--color2, #0065a9)" d="M29.010 5.030l-5.766-2.776c-0.326-0.157-0.692-0.209-1.048-0.148s-0.685 0.231-0.941 0.486l-18.875 17.208c-0.229 0.208-0.366 0.498-0.381 0.807s0.093 0.611 0.301 0.84c0.025 0.027 0.050 0.053 0.077 0.077l1.541 1.4c0.201 0.183 0.461 0.29 0.733 0.302s0.54-0.072 0.756-0.236l22.735-17.24c0.172-0.13 0.376-0.21 0.591-0.23s0.431 0.020 0.624 0.116c0.193 0.096 0.355 0.244 0.469 0.427s0.174 0.394 0.174 0.61v-0.067c0-0.329-0.093-0.652-0.268-0.93s-0.425-0.502-0.722-0.645z"></path>
<path fill="#007acc" style="fill: var(--color3, #007acc)" d="M29.010 26.97l-5.766 2.777c-0.326 0.156-0.692 0.208-1.048 0.147s-0.685-0.23-0.941-0.485l-18.875-17.209c-0.229-0.208-0.366-0.498-0.381-0.807s0.093-0.611 0.301-0.84c0.025-0.027 0.050-0.053 0.077-0.077l1.541-1.4c0.202-0.184 0.461-0.291 0.734-0.303s0.541 0.072 0.758 0.238l22.732 17.24c0.172 0.13 0.376 0.21 0.591 0.23s0.431-0.020 0.624-0.116c0.193-0.096 0.355-0.244 0.469-0.427s0.174-0.394 0.174-0.61v0.072c-0.001 0.328-0.095 0.649-0.269 0.927s-0.425 0.5-0.721 0.643z"></path>
<path fill="#1f9cf0" style="fill: var(--color4, #1f9cf0)" d="M23.244 29.747c-0.326 0.156-0.692 0.208-1.048 0.147s-0.685-0.23-0.941-0.485c0.144 0.142 0.326 0.238 0.524 0.276s0.403 0.018 0.589-0.059c0.186-0.077 0.346-0.208 0.458-0.376s0.173-0.365 0.174-0.566v-25.368c0-0.203-0.060-0.401-0.172-0.57s-0.273-0.3-0.46-0.377c-0.187-0.078-0.393-0.098-0.592-0.058s-0.381 0.138-0.524 0.281c0.256-0.256 0.584-0.426 0.941-0.486s0.723-0.009 1.049 0.147l5.765 2.772c0.298 0.142 0.549 0.365 0.725 0.644s0.27 0.601 0.27 0.931v18.8c0 0.329-0.093 0.652-0.268 0.931s-0.426 0.502-0.723 0.645l-5.765 2.771z"></path>
</symbol>
<symbol id="icon-git" viewBox="0 0 32 32">
<path fill="#de4c36" style="fill: var(--color5, #de4c36)" d="M31.397 14.574l-13.972-13.971c-0.804-0.805-2.109-0.805-2.914 0l-2.901 2.901 3.68 3.68c0.855-0.289 1.836-0.095 2.518 0.587 0.685 0.686 0.878 1.675 0.581 2.533l3.547 3.547c0.858-0.296 1.848-0.104 2.534 0.582 0.958 0.957 0.958 2.509 0 3.468s-2.51 0.958-3.469 0c-0.721-0.721-0.898-1.779-0.534-2.667l-3.308-3.308-0 8.705c0.24 0.119 0.459 0.275 0.648 0.464 0.958 0.957 0.958 2.509 0 3.468-0.958 0.958-2.511 0.958-3.468 0-0.958-0.959-0.958-2.511 0-3.468 0.23-0.23 0.502-0.412 0.803-0.535v-8.786c-0.301-0.123-0.574-0.305-0.803-0.535-0.726-0.725-0.9-1.79-0.528-2.681l-3.628-3.628-9.58 9.579c-0.805 0.805-0.805 2.11 0 2.915l13.972 13.971c0.804 0.805 2.109 0.805 2.914 0l13.906-13.906c0.805-0.805 0.805-2.111 0-2.915z"></path>
</symbol>
<symbol id="icon-sass" viewBox="0 0 32 32">
<path fill="#cd6799" style="fill: var(--color6, #cd6799)" d="M27.535 17.799c-1.113 0.006-2.081 0.272-2.891 0.665-0.297-0.584-0.595-1.104-0.647-1.485-0.058-0.445-0.128-0.717-0.058-1.248s0.385-1.289 0.379-1.347c-0.006-0.058-0.070-0.329-0.711-0.335s-1.195 0.121-1.259 0.289-0.186 0.549-0.268 0.942c-0.111 0.578-1.282 2.641-1.952 3.722-0.216-0.422-0.402-0.792-0.443-1.086-0.058-0.445-0.128-0.717-0.058-1.248s0.385-1.289 0.379-1.347c-0.006-0.058-0.070-0.329-0.711-0.335s-1.195 0.121-1.259 0.289c-0.064 0.168-0.134 0.561-0.268 0.942s-1.69 3.826-2.098 4.716c-0.165 0.36-0.338 0.717-0.519 1.069 0 0-0.006 0.017-0.023 0.046-0.057 0.111-0.115 0.22-0.175 0.329v0.006c-0.088 0.156-0.181 0.301-0.227 0.301-0.035 0-0.099-0.416 0.012-0.982 0.233-1.196 0.787-3.057 0.781-3.121 0-0.035 0.105-0.358-0.361-0.526-0.455-0.168-0.618 0.11-0.659 0.11s-0.070 0.098-0.070 0.098 0.507-2.092-0.967-2.092c-0.921 0-2.191 1-2.821 1.901-0.716 0.386-1.431 0.773-2.145 1.162-0.344 0.191-0.699 0.381-1.032 0.561-0.023-0.023-0.047-0.052-0.070-0.075-1.784-1.89-5.082-3.225-4.942-5.762 0.053-0.925 0.373-3.352 6.336-6.299 4.907-2.398 8.813-1.734 9.489-0.26 0.967 2.104-2.092 6.010-7.163 6.576-1.935 0.214-2.949-0.526-3.206-0.803-0.268-0.289-0.309-0.306-0.408-0.248-0.163 0.087-0.058 0.347 0 0.497 0.152 0.393 0.775 1.086 1.83 1.427 0.933 0.3 3.2 0.468 5.945-0.584 3.072-1.179 5.473-4.456 4.768-7.201-0.705-2.785-5.368-3.704-9.78-2.15-2.623 0.925-5.467 2.381-7.513 4.277-2.43 2.254-2.815 4.213-2.658 5.033 0.565 2.913 4.616 4.808 6.237 6.212-0.082 0.046-0.157 0.087-0.221 0.121-0.81 0.399-3.899 1.999-4.669 3.693-0.874 1.919 0.14 3.294 0.81 3.479 2.081 0.572 4.22-0.456 5.368-2.156s1.008-3.907 0.478-4.918c-0.006-0.012-0.012-0.023-0.023-0.035 0.21-0.121 0.425-0.248 0.635-0.37 0.386-0.226 0.776-0.444 1.172-0.653-0.198 0.538-0.344 1.179-0.414 2.104-0.088 1.087 0.361 2.497 0.95 3.051 0.262 0.243 0.571 0.249 0.769 0.249 0.688 0 0.997-0.566 1.341-1.237 0.42-0.821 0.798-1.774 0.798-1.774s-0.472 2.577 0.81 2.577c0.466 0 0.938-0.601 1.148-0.907v0.006c0 0 0.012-0.017 0.035-0.058 0.047-0.075 0.076-0.121 0.076-0.121v-0.011c0.187-0.324 0.606-1.058 1.23-2.277 0.804-1.572 1.58-3.537 1.58-3.537s0.070 0.48 0.309 1.277c0.14 0.468 0.431 0.982 0.664 1.479-0.186 0.26-0.303 0.404-0.303 0.404l0.006 0.006c-0.152 0.196-0.315 0.41-0.495 0.618-0.635 0.751-1.393 1.612-1.498 1.861-0.122 0.295-0.093 0.509 0.14 0.682 0.169 0.127 0.472 0.144 0.781 0.127 0.571-0.041 0.973-0.179 1.171-0.266 0.309-0.11 0.67-0.277 1.008-0.526 0.624-0.457 1.002-1.11 0.968-1.971-0.017-0.474-0.175-0.948-0.367-1.393 0.058-0.081 0.111-0.162 0.169-0.243 0.985-1.427 1.749-2.994 1.749-2.994s0.070 0.48 0.309 1.277c0.117 0.404 0.356 0.844 0.565 1.271-0.927 0.746-1.498 1.612-1.702 2.179-0.367 1.052-0.082 1.526 0.46 1.635 0.245 0.052 0.594-0.064 0.851-0.173 0.326-0.104 0.711-0.283 1.078-0.549 0.624-0.456 1.224-1.092 1.189-1.953-0.017-0.393-0.122-0.78-0.268-1.156 0.787-0.323 1.801-0.503 3.095-0.352 2.774 0.324 3.322 2.040 3.217 2.762s-0.688 1.115-0.88 1.237c-0.193 0.121-0.257 0.162-0.239 0.248 0.023 0.127 0.116 0.121 0.28 0.098 0.227-0.040 1.457-0.584 1.509-1.913 0.088-1.699-1.544-3.554-4.43-3.537zM6.132 24.953c-0.921 0.994-2.203 1.37-2.757 1.052-0.594-0.341-0.361-1.809 0.769-2.861 0.688-0.641 1.574-1.237 2.162-1.601 0.134-0.081 0.332-0.196 0.571-0.341 0.041-0.023 0.064-0.035 0.064-0.035l0.14-0.087c0.414 1.503 0.018 2.826-0.95 3.872zM12.835 20.434c-0.321 0.774-0.991 2.757-1.399 2.647-0.35-0.092-0.565-1.595-0.070-3.080 0.251-0.746 0.781-1.636 1.090-1.982 0.501-0.555 1.055-0.74 1.189-0.514 0.169 0.295-0.612 2.444-0.81 2.93zM18.366 23.058c-0.134 0.069-0.262 0.116-0.321 0.081-0.041-0.023 0.058-0.116 0.058-0.116s0.694-0.74 0.967-1.075c0.157-0.196 0.344-0.428 0.542-0.688v0.075c0 0.884-0.863 1.48-1.247 1.722h0zM22.633 22.092c-0.099-0.069-0.082-0.301 0.251-1.023 0.128-0.283 0.431-0.757 0.95-1.214 0.058 0.185 0.099 0.364 0.093 0.532-0.006 1.115-0.81 1.531-1.294 1.705z"></path>
</symbol>
<symbol id="icon-react" viewBox="0 0 32 32">
<path fill="#00d8ff" style="fill: var(--color7, #00d8ff)" d="M26.31 10.96c-0.34-0.117-0.684-0.226-1.030-0.326 0.058-0.238 0.112-0.474 0.159-0.705 0.78-3.799 0.27-6.859-1.471-7.867-1.669-0.966-4.399 0.041-7.156 2.449-0.272 0.238-0.537 0.482-0.797 0.734-0.174-0.167-0.35-0.331-0.53-0.491-2.889-2.575-5.786-3.66-7.525-2.65-1.668 0.969-2.162 3.846-1.46 7.446 0.070 0.357 0.149 0.711 0.237 1.064-0.41 0.117-0.806 0.241-1.184 0.374-3.388 1.185-5.551 3.043-5.551 4.97 0 1.99 2.323 3.986 5.851 5.197 0.286 0.098 0.574 0.188 0.865 0.272-0.094 0.38-0.178 0.762-0.251 1.146-0.669 3.538-0.147 6.346 1.517 7.309 1.718 0.994 4.601-0.028 7.409-2.491 0.228-0.2 0.45-0.406 0.668-0.618 0.281 0.272 0.569 0.536 0.865 0.792 2.72 2.349 5.405 3.297 7.067 2.332 1.716-0.997 2.274-4.015 1.55-7.686-0.057-0.288-0.121-0.574-0.192-0.858 0.202-0.060 0.401-0.122 0.595-0.187 3.668-1.22 6.055-3.192 6.055-5.209 0-1.934-2.233-3.804-5.689-4.998zM25.514 19.865c-0.175 0.058-0.354 0.114-0.537 0.169-0.405-1.287-0.951-2.655-1.62-4.068 0.638-1.38 1.164-2.731 1.557-4.009 0.327 0.095 0.645 0.195 0.951 0.301 2.961 1.023 4.767 2.536 4.767 3.701 0 1.241-1.951 2.853-5.118 3.906zM24.2 22.478c0.32 1.623 0.366 3.091 0.154 4.238-0.191 1.031-0.574 1.718-1.048 1.994-1.008 0.586-3.165-0.176-5.49-2.184-0.275-0.238-0.543-0.483-0.805-0.736 0.902-0.99 1.803-2.14 2.682-3.418 1.547-0.138 3.008-0.363 4.334-0.671 0.064 0.258 0.122 0.517 0.173 0.777zM10.91 28.609c-0.985 0.349-1.77 0.359-2.244 0.085-1.009-0.584-1.429-2.84-0.857-5.865 0.068-0.358 0.146-0.713 0.234-1.066 1.311 0.291 2.761 0.5 4.312 0.626 0.885 1.25 1.812 2.4 2.747 3.406-0.199 0.193-0.402 0.381-0.61 0.564-1.242 1.089-2.486 1.862-3.582 2.25zM6.295 19.857c-1.56-0.535-2.849-1.231-3.732-1.99-0.794-0.682-1.194-1.359-1.194-1.909 0-1.169 1.737-2.661 4.634-3.675 0.352-0.123 0.72-0.239 1.101-0.348 0.4 1.307 0.926 2.674 1.559 4.056-0.642 1.402-1.175 2.791-1.579 4.114-0.265-0.076-0.529-0.159-0.79-0.248zM7.842 9.287c-0.601-3.084-0.202-5.411 0.803-5.995 1.070-0.622 3.437 0.265 5.932 2.488 0.163 0.145 0.323 0.294 0.48 0.445-0.93 1.002-1.848 2.143-2.726 3.386-1.505 0.14-2.945 0.365-4.27 0.666-0.082-0.328-0.155-0.658-0.22-0.989v-0zM21.644 12.708c-0.313-0.542-0.637-1.078-0.973-1.606 1.021 0.13 1.999 0.302 2.918 0.512-0.276 0.887-0.619 1.815-1.024 2.765-0.296-0.563-0.603-1.12-0.921-1.671zM16.015 7.205c0.63 0.686 1.262 1.451 1.883 2.281-1.26-0.060-2.522-0.060-3.782-0.001 0.622-0.823 1.259-1.587 1.899-2.281zM10.351 12.717c-0.314 0.546-0.615 1.1-0.903 1.661-0.398-0.947-0.739-1.879-1.017-2.779 0.913-0.205 1.886-0.373 2.901-0.5-0.34 0.531-0.667 1.071-0.981 1.618v0zM11.361 20.915c-1.048-0.117-2.036-0.276-2.949-0.476 0.282-0.916 0.631-1.867 1.037-2.835 0.289 0.561 0.592 1.115 0.907 1.662 0.324 0.562 0.66 1.112 1.005 1.649zM16.053 24.808c-0.648-0.701-1.294-1.478-1.925-2.312 0.613 0.024 1.237 0.036 1.872 0.036 0.652 0 1.297-0.015 1.931-0.043-0.623 0.85-1.252 1.627-1.878 2.319zM22.577 17.555c0.428 0.978 0.788 1.925 1.074 2.825-0.928 0.212-1.929 0.384-2.985 0.511 0.338-0.538 0.666-1.083 0.982-1.634 0.322-0.56 0.631-1.128 0.928-1.702zM20.465 18.571c-0.485 0.845-0.997 1.674-1.535 2.486-0.975 0.069-1.953 0.104-2.93 0.103-0.996 0-1.964-0.031-2.897-0.092-0.552-0.81-1.074-1.64-1.564-2.49h0c-0.488-0.845-0.943-1.708-1.365-2.588 0.421-0.88 0.875-1.743 1.361-2.589l-0 0c0.486-0.846 1.003-1.673 1.552-2.479 0.952-0.072 1.927-0.11 2.914-0.11h0c0.991 0 1.968 0.038 2.919 0.111 0.543 0.805 1.057 1.629 1.542 2.471 0.488 0.844 0.948 1.703 1.379 2.577-0.427 0.883-0.886 1.75-1.375 2.6zM23.285 3.251c1.071 0.62 1.488 3.121 0.815 6.401-0.043 0.209-0.091 0.422-0.144 0.639-1.328-0.308-2.769-0.536-4.278-0.678-0.879-1.257-1.79-2.399-2.705-3.388 0.24-0.232 0.485-0.458 0.736-0.677 2.362-2.063 4.57-2.878 5.576-2.296zM16 13.091c1.578 0 2.857 1.284 2.857 2.868s-1.279 2.868-2.857 2.868c-1.578 0-2.857-1.284-2.857-2.868s1.279-2.868 2.857-2.868z"></path>
</symbol>
<symbol id="icon-redux" viewBox="0 0 32 32">
<path fill="#764abc" style="fill: var(--color8, #764abc)" d="M22.172 22.027c-2.25 4.6-6.19 7.695-11.402 8.713-0.71 0.181-1.524 0.285-2.364 0.285-0.028 0-0.056-0-0.083-0l0.004 0c-3 0-5.75-1.25-7.085-3.297-1.792-2.727-2.402-8.51 3.507-12.787 0.12 0.652 0.365 1.548 0.527 2.077-1.153 0.863-2.088 1.951-2.752 3.206l-0.025 0.052c-1.1 2.16-0.978 4.317 0.325 6.313 0.9 1.345 2.325 2.163 4.158 2.413 0.415 0.055 0.894 0.087 1.381 0.087 1.927 0 3.738-0.495 5.313-1.366l-0.057 0.029c3.178-1.67 5.295-3.665 6.68-6.392-0.378-0.391-0.621-0.914-0.652-1.494l-0-0.006c-0.001-0.024-0.001-0.051-0.001-0.079 0-1.23 0.974-2.232 2.192-2.278l0.004-0h0.085c0.003-0 0.007-0 0.011-0 1.263 0 2.288 1.024 2.288 2.288 0 1.179-0.892 2.15-2.039 2.274l-0.010 0.001zM29.34 16.977c3.052 3.46 3.135 7.532 1.955 9.895-1.1 2.157-4 4.317-7.9 4.317-1.917-0.040-3.717-0.502-5.324-1.295l0.074 0.033c0.573-0.407 1.385-1.060 1.832-1.468 1.178 0.524 2.55 0.837 3.993 0.855l0.007 0c2.525 0 4.438-1.18 5.578-3.337 0.733-1.425 0.775-3.095 0.082-4.805-0.879-2.187-2.376-3.973-4.274-5.186l-0.044-0.026c-2.43-1.658-5.431-2.648-8.664-2.648-0.007 0-0.015 0-0.022 0h-0.731c-0.348 0.789-1.105 1.34-1.995 1.385l-0.005 0h-0.078c-1.248-0.016-2.254-1.032-2.254-2.282 0-1.224 0.964-2.224 2.174-2.28l0.005-0h0.082c0.867 0.001 1.619 0.491 1.994 1.21l0.006 0.012h0.652c5.2 0 9.765 1.995 12.855 5.62zM8.652 22.727c-0.006-0.056-0.010-0.121-0.010-0.187 0-0.37 0.11-0.714 0.299-1.002l-0.004 0.007c-2.28-3.95-3.5-8.957-1.627-14.17 1.342-3.917 4.723-6.565 8.387-6.565 3.91 0 7.982 3.423 8.47 10.017-0.61-0.203-1.5-0.5-2.035-0.61-0.133-2.158-1.955-7.532-6.273-7.452-1.547 0.042-3.828 0.775-5 2.28-1.397 1.719-2.285 3.901-2.409 6.286l-0.001 0.027c-0.036 0.387-0.056 0.836-0.056 1.29 0 2.865 0.809 5.542 2.21 7.814l-0.037-0.064c0.070-0.026 0.151-0.042 0.236-0.042 0.017 0 0.034 0.001 0.051 0.002l-0.002-0h0.080c0.012-0 0.027-0 0.041-0 1.259 0 2.28 1.021 2.28 2.28 0 1.245-0.998 2.257-2.237 2.28l-0.002 0h-0.082c-1.229-0.005-2.229-0.976-2.28-2.193l-0-0.005z"></path>
</symbol>
<symbol id="icon-js" viewBox="0 0 32 32">
<path fill="#f5de19" style="fill: var(--color8, #f5de19)" d="M2 2h28v28h-28v-28z"></path>
<path fill="#000" style="fill: var(--color9, #000)" d="M20.809 23.875c0.239 0.485 0.609 0.892 1.069 1.175s0.991 0.43 1.531 0.425c1.090 0 1.787-0.545 1.787-1.3 0-0.9-0.716-1.222-1.916-1.747l-0.658-0.282c-1.9-0.809-3.16-1.822-3.16-3.964 0-1.973 1.5-3.476 3.853-3.476 0.762-0.055 1.523 0.115 2.188 0.49s1.206 0.937 1.554 1.617l-2.057 1.315c-0.134-0.337-0.367-0.625-0.669-0.827s-0.657-0.306-1.020-0.301c-0.158-0.016-0.318 0.001-0.469 0.051s-0.29 0.13-0.409 0.236c-0.118 0.106-0.213 0.236-0.279 0.381s-0.1 0.302-0.102 0.461c0 0.789 0.489 1.109 1.618 1.6l0.658 0.282c2.236 0.959 3.5 1.936 3.5 4.133 0 2.369-1.861 3.667-4.36 3.667-0.974 0.062-1.945-0.159-2.795-0.636s-1.545-1.191-2-2.055l2.136-1.244zM11.514 24.103c0.413 0.733 0.789 1.353 1.693 1.353 0.864 0 1.41-0.338 1.41-1.653v-8.947h2.631v8.982c0 2.724-1.6 3.964-3.929 3.964-0.823 0.045-1.641-0.16-2.345-0.588s-1.263-1.060-1.602-1.812l2.142-1.299z"></path>
</symbol>
<symbol id="icon-typescript" viewBox="0 0 32 32">
<path fill="#007acc" style="fill: var(--color1, #007acc)" d="M2 16v14h28v-28h-28v14z"></path>
<path fill="#fff" style="fill: var(--color2, #fff)" d="M24.564 14.884c0.695 0.165 1.292 0.52 1.749 1.007l0.002 0.002c0.252 0.263 0.474 0.558 0.659 0.878l0.012 0.022c0.009 0.036-1.209 0.853-1.947 1.311-0.027 0.018-0.133-0.1-0.253-0.276-0.27-0.461-0.755-0.77-1.313-0.791l-0.003-0c-0.849-0.058-1.4 0.387-1.391 1.129-0 0.012-0.001 0.026-0.001 0.041 0 0.177 0.045 0.343 0.123 0.489l-0.003-0.005c0.187 0.387 0.533 0.618 1.622 1.089 2 0.862 2.862 1.431 3.4 2.24 0.351 0.588 0.558 1.297 0.558 2.055 0 0.487-0.086 0.954-0.243 1.387l0.009-0.028c-0.553 1.226-1.712 2.091-3.085 2.217l-0.015 0.001c-0.294 0.036-0.634 0.056-0.979 0.056-0.407 0-0.808-0.028-1.2-0.083l0.045 0.005c-1.126-0.189-2.104-0.721-2.848-1.483l-0.001-0.001c-0.279-0.313-0.522-0.668-0.716-1.052l-0.013-0.028c0.075-0.056 0.159-0.11 0.247-0.159l0.011-0.005c0.124-0.071 0.6-0.342 1.040-0.6l0.8-0.467 0.168 0.247c0.288 0.408 0.643 0.748 1.052 1.011l0.015 0.009c0.361 0.202 0.792 0.32 1.25 0.32 0.551 0 1.062-0.171 1.483-0.464l-0.009 0.006c0.225-0.221 0.365-0.529 0.365-0.869 0-0.255-0.078-0.491-0.212-0.686l0.003 0.004c-0.218-0.311-0.662-0.573-1.924-1.12-1.030-0.355-1.912-0.91-2.637-1.623l0.001 0.001c-0.343-0.39-0.608-0.858-0.762-1.374l-0.007-0.026c-0.063-0.314-0.098-0.676-0.098-1.045 0-0.262 0.018-0.519 0.053-0.771l-0.003 0.029c0.31-1.395 1.443-2.456 2.853-2.656l0.018-0.002c0.259-0.034 0.559-0.053 0.864-0.053 0.445 0 0.881 0.041 1.304 0.12l-0.044-0.007zM17.991 16.053l0.009 1.147h-3.644v10.356h-2.578v-10.356h-3.645v-1.124c-0.002-0.084-0.004-0.184-0.004-0.283 0-0.307 0.013-0.612 0.037-0.912l-0.003 0.040c0.013-0.018 2.231-0.027 4.92-0.022l4.893 0.013z"></path>
</symbol>
<symbol id="icon-css" viewBox="0 0 32 32">
<path fill="#1572b6" style="fill: var(--color10, #1572b6)" d="M5.902 27.108l-2.246-24.991h24.688l-2.249 24.987-10.11 2.779-10.083-2.775z"></path>
<path fill="#33a9dc" style="fill: var(--color11, #33a9dc)" d="M16 27.759l8.17-2.246 1.922-21.353h-10.092v23.599z"></path>
<path fill="#fff" style="fill: var(--color12, #fff)" d="M16 13.214h4.090l0.282-3.139h-4.372v-3.065h7.75l-0.074 0.822-0.759 8.447h-6.917v-3.065z"></path>
<path fill="#ebebeb" style="fill: var(--color13, #ebebeb)" d="M16.019 21.174l-0.014 0.004-3.442-0.922-0.22-2.444h-3.103l0.433 4.813 6.331 1.743 0.015-0.004v-3.189z"></path>
<path fill="#fff" style="fill: var(--color12, #fff)" d="M19.827 16.15l-0.372 4.104-3.447 0.922v3.189l6.336-1.741 0.047-0.518 0.537-5.957h-3.101z"></path>
<path fill="#ebebeb" style="fill: var(--color13, #ebebeb)" d="M16.011 7.011v3.065h-7.466l-0.062-0.689-0.141-1.554-0.074-0.822h7.743zM16 13.214v3.065h-3.399l-0.062-0.689-0.14-1.554-0.074-0.822h3.675z"></path>
</symbol>
<symbol id="icon-html" viewBox="0 0 32 32">
<path fill="#e44f26" style="fill: var(--color14, #e44f26)" d="M5.902 27.201l-2.247-25.201h24.69l-2.25 25.197-10.11 2.803-10.083-2.799z"></path>
<path fill="#f1662a" style="fill: var(--color15, #f1662a)" d="M16 27.858l8.17-2.265 1.922-21.532h-10.092v23.797z"></path>
<path fill="#ebebeb" style="fill: var(--color13, #ebebeb)" d="M16 13.407h-4.090l-0.282-3.165h4.372v-3.091h-7.75l0.074 0.83 0.759 8.517h6.917v-3.091zM16 21.434l-0.014 0.004-3.442-0.929-0.22-2.465h-3.103l0.433 4.852 6.332 1.758 0.014-0.004v-3.216z"></path>
<path fill="#fff" style="fill: var(--color12, #fff)" d="M15.989 13.407v3.091h3.806l-0.358 4.009-3.448 0.93v3.216l6.337-1.757 0.046-0.522 0.726-8.137 0.076-0.83h-7.185zM15.989 7.151v3.091h7.466l0.062-0.694 0.141-1.567 0.074-0.83h-7.743z"></path>
</symbol>
<symbol id="icon-nodejs" viewBox="0 0 32 32">
<path fill="#8cc84b" style="fill: var(--color16, #8cc84b)" d="M14.691 0.406c0.791-0.452 1.821-0.454 2.611 0 3.976 2.244 7.953 4.484 11.928 6.729 0.748 0.421 1.248 1.252 1.24 2.112v13.5c0.006 0.896-0.544 1.747-1.333 2.158-3.963 2.232-7.924 4.466-11.886 6.697-0.807 0.461-1.858 0.426-2.64-0.073-1.188-0.688-2.378-1.372-3.566-2.060-0.243-0.145-0.517-0.26-0.688-0.495 0.152-0.204 0.423-0.229 0.643-0.319 0.496-0.158 0.951-0.41 1.407-0.656 0.115-0.079 0.256-0.049 0.366 0.022 1.016 0.582 2.023 1.18 3.042 1.757 0.217 0.125 0.438-0.041 0.623-0.145 3.889-2.195 7.782-4.382 11.67-6.578 0.144-0.069 0.224-0.222 0.212-0.38 0.003-4.453 0.001-8.908 0.001-13.361 0.016-0.179-0.087-0.343-0.249-0.416-3.949-2.221-7.896-4.446-11.844-6.668-0.068-0.047-0.149-0.072-0.232-0.072s-0.164 0.025-0.233 0.072c-3.948 2.223-7.895 4.449-11.843 6.67-0.161 0.073-0.27 0.235-0.25 0.415 0.001 4.453 0 8.908 0 13.361-0.007 0.077 0.010 0.154 0.048 0.221s0.096 0.121 0.166 0.154c1.054 0.597 2.109 1.189 3.163 1.784 0.594 0.319 1.323 0.509 1.978 0.264 0.577-0.207 0.982-0.795 0.971-1.408 0.005-4.427-0.003-8.855 0.004-13.282-0.014-0.197 0.172-0.359 0.364-0.34 0.506-0.003 1.013-0.007 1.519 0.001 0.211-0.005 0.357 0.207 0.331 0.405-0.002 4.455 0.005 8.911-0.003 13.366 0.001 1.187-0.487 2.48-1.587 3.060-1.355 0.701-3.029 0.552-4.367-0.12-1.159-0.578-2.264-1.259-3.402-1.878-0.791-0.409-1.338-1.263-1.332-2.159v-13.5c-0.008-0.878 0.512-1.724 1.283-2.139 3.962-2.233 7.923-4.468 11.885-6.703z"></path>
<path fill="#8cc84b" style="fill: var(--color16, #8cc84b)" d="M18.147 9.758c1.728-0.111 3.578-0.066 5.133 0.784 1.204 0.652 1.871 2.019 1.893 3.355-0.034 0.18-0.222 0.28-0.394 0.267-0.501-0.001-1.003 0.007-1.504-0.003-0.213 0.008-0.336-0.188-0.363-0.376-0.144-0.639-0.493-1.272-1.095-1.581-0.925-0.462-1.997-0.439-3.005-0.43-0.736 0.039-1.528 0.103-2.151 0.535-0.479 0.328-0.624 0.989-0.453 1.521 0.161 0.382 0.603 0.506 0.964 0.619 2.082 0.544 4.289 0.49 6.332 1.206 0.846 0.292 1.673 0.859 1.963 1.744 0.379 1.185 0.213 2.602-0.632 3.554-0.685 0.783-1.682 1.209-2.677 1.441-1.323 0.295-2.696 0.302-4.040 0.171-1.264-0.144-2.578-0.476-3.554-1.335-0.834-0.723-1.242-1.851-1.201-2.938 0.010-0.184 0.193-0.312 0.369-0.297 0.505-0.004 1.010-0.005 1.515 0.001 0.202-0.014 0.351 0.16 0.362 0.35 0.093 0.609 0.322 1.248 0.854 1.609 1.026 0.661 2.314 0.616 3.489 0.634 0.973-0.043 2.066-0.056 2.861-0.699 0.419-0.367 0.543-0.98 0.43-1.507-0.123-0.445-0.589-0.653-0.99-0.789-2.056-0.65-4.287-0.414-6.323-1.148-0.827-0.292-1.626-0.843-1.943-1.691-0.443-1.2-0.24-2.685 0.693-3.604 0.91-0.915 2.223-1.267 3.471-1.393v0z"></path>
</symbol>
<symbol id="icon-figma" viewBox="0 0 32 32">
<path fill="#0acf83" style="fill: var(--color3, #0acf83)" d="M10.671 32c2.946 0 5.333-2.388 5.333-5.333v0-5.333h-5.333c-2.946 0-5.333 2.388-5.333 5.333s2.388 5.333 5.333 5.333v0z"></path>
<path fill="#a259ff" style="fill: var(--color4, #a259ff)" d="M5.338 16c0-2.946 2.388-5.333 5.333-5.333v0h5.333v10.667h-5.333c-2.946 0-5.333-2.388-5.333-5.333v0z"></path>
<path fill="#f24e1e" style="fill: var(--color5, #f24e1e)" d="M5.338 5.333c0-2.944 2.385-5.331 5.329-5.333h5.334v10.667h-5.329c-2.946 0-5.333-2.388-5.333-5.333v0z"></path>
<path fill="#ff7262" style="fill: var(--color6, #ff7262)" d="M16.004 0h5.333c2.946 0 5.333 2.388 5.333 5.333s-2.388 5.333-5.333 5.333v0h-5.333z"></path>
<path fill="#1abcfe" style="fill: var(--color7, #1abcfe)" d="M26.671 16c0 2.946-2.388 5.333-5.333 5.333s-5.333-2.388-5.333-5.333v0c0-2.946 2.388-5.333 5.333-5.333s5.333 2.388 5.333 5.333v0z"></path>
</symbol>
<symbol id="icon-mongodb-svgrepo-com" viewBox="0 0 32 32">
<path fill="#fff" style="fill: var(--color2, #fff)" d="M6.575 0.438h18.849c3.389 0 6.137 2.748 6.137 6.137v18.849c0 3.389-2.748 6.137-6.137 6.137h-18.849c-3.389 0-6.137-2.748-6.137-6.137v-18.849c0-3.389 2.748-6.137 6.137-6.137z"></path>
<path fill="#a6a385" style="fill: var(--color5, #a6a385)" d="M16.436 27.059l-0.591-0.202c0 0 0.072-3.013-1.009-3.23-0.721-0.836 0.116-35.471 2.711-0.115 0 0-0.894 0.447-1.053 1.211-0.173 0.75-0.058 2.336-0.058 2.336z"></path>
<path fill="#499d4a" style="fill: var(--color6, #499d4a)" d="M16.753 24.146c0 0 5.177-3.403 3.965-10.483-1.168-5.147-3.922-6.834-4.225-7.483-0.332-0.461-0.649-1.269-0.649-1.269l0.216 14.318c0 0.015-0.447 4.383 0.692 4.917z"></path>
<path fill="#58aa50" style="fill: var(--color7, #58aa50)" d="M15.542 24.334c0 0-4.859-3.316-4.571-9.156 0.274-5.84 3.706-8.709 4.369-9.228 0.433-0.461 0.447-0.635 0.476-1.096 0.303 0.649 0.245 9.704 0.288 10.771 0.13 4.109-0.231 7.931-0.562 8.709z"></path>
</symbol>
<symbol id="icon-mongodb-svgrepo-com-1" viewBox="0 0 32 32">
<path fill="#13aa52" style="fill: var(--color1, #13aa52)" d="M32 16c0 8.837-7.163 16-16 16s-16-7.163-16-16c0-8.837 7.163-16 16-16s16 7.163 16 16z"></path>
<path fill="#fff" style="fill: var(--color2, #fff)" d="M20.277 14.045c-1.011-4.46-3.399-5.927-3.656-6.487-0.281-0.395-0.566-1.098-0.566-1.098-0.005-0.012-0.012-0.033-0.021-0.053-0.029 0.395-0.044 0.548-0.418 0.947-0.579 0.452-3.548 2.944-3.79 8.012-0.225 4.726 3.414 7.543 3.906 7.902l0.056 0.040v-0.003c0.003 0.024 0.156 1.125 0.264 2.292h0.386c0.106-0.953 0.248-1.788 0.436-2.607l-0.029 0.152 0.031-0.020c0.234-0.168 0.439-0.337 0.632-0.518l-0.004 0.004 0.023-0.020c1.046-0.967 2.927-3.202 2.909-6.767-0.004-0.63-0.061-1.243-0.167-1.839l0.010 0.066zM16.011 20.598s0-6.629 0.219-6.628c0.171 0 0.392 8.55 0.392 8.55-0.304-0.037-0.61-1.407-0.61-1.923z"></path>
</symbol>
<symbol id="icon-mongodb-logo-svgrepo-com" viewBox="0 0 32 32">
<path fill="#8e714e" style="fill: var(--color3, #8e714e)" d="M29.795 15.216c-0.029 0.006-0.058 0.069-0.058 0.104-0.006 0.231-0.012 0.842-0.012 1.257 0 0.012 0.017 0.035 0.035 0.035 0.087 0.006 0.294 0.012 0.473 0.012 0.248 0 0.392-0.035 0.473-0.069 0.208-0.104 0.306-0.329 0.306-0.577 0-0.559-0.392-0.773-0.975-0.773-0.040-0.006-0.156-0.006-0.242 0.012zM31.283 17.795c0-0.571-0.421-0.888-1.182-0.888-0.035 0-0.277-0.006-0.335 0.006-0.017 0.006-0.040 0.017-0.040 0.035 0 0.409-0.006 1.061 0.012 1.315 0.012 0.11 0.092 0.265 0.19 0.311 0.104 0.058 0.34 0.069 0.502 0.069 0.456 0 0.854-0.254 0.854-0.848zM28.618 14.899c0.058 0 0.231 0.017 0.675 0.017 0.421 0 0.756-0.011 1.165-0.011 0.502 0 1.194 0.179 1.194 0.929 0 0.369-0.26 0.663-0.6 0.807-0.017 0.006-0.017 0.017 0 0.023 0.484 0.121 0.911 0.421 0.911 0.986 0 0.554-0.346 0.906-0.848 1.125-0.306 0.133-0.686 0.179-1.073 0.179-0.294 0-1.084-0.035-1.523-0.023-0.046-0.017 0.040-0.225 0.081-0.26 0.104-0.006 0.185-0.012 0.294-0.046 0.156-0.040 0.173-0.087 0.196-0.323 0.012-0.202 0.012-0.917 0.012-1.425 0-0.698 0.006-1.171 0-1.402-0.006-0.179-0.069-0.236-0.196-0.271-0.098-0.017-0.26-0.040-0.392-0.058-0.029-0.029 0.069-0.225 0.104-0.248zM25.29 18.487c0.139 0.11 0.41 0.156 0.652 0.156 0.311 0 0.623-0.058 0.923-0.329 0.306-0.277 0.519-0.704 0.519-1.384 0-0.652-0.248-1.182-0.756-1.494-0.288-0.179-0.657-0.254-1.084-0.254-0.127 0-0.248 0.006-0.323 0.040-0.017 0.012-0.058 0.063-0.058 0.092-0.012 0.115-0.012 1.004-0.012 1.523 0 0.536 0 1.286 0.012 1.373 0 0.087 0.040 0.219 0.127 0.277zM23.981 14.899c0.11 0 0.531 0.017 0.733 0.017 0.363 0 0.623-0.017 1.309-0.017 0.577 0 1.061 0.156 1.407 0.45 0.421 0.363 0.64 0.865 0.64 1.477 0 0.871-0.398 1.373-0.796 1.661-0.398 0.294-0.917 0.467-1.655 0.467-0.392 0-1.067-0.012-1.627-0.017h-0.006c-0.029-0.052 0.046-0.254 0.092-0.259 0.15-0.017 0.19-0.023 0.265-0.052 0.121-0.046 0.144-0.11 0.162-0.323 0.017-0.398 0.012-0.877 0.012-1.419 0-0.386 0.006-1.142-0.006-1.384-0.017-0.202-0.104-0.254-0.277-0.288-0.087-0.017-0.202-0.040-0.363-0.058-0.023-0.040 0.081-0.219 0.11-0.254z"></path>
<path fill="#442d22" style="fill: var(--color4, #442d22)" d="M17.002 18.712c-0.144-0.017-0.248-0.040-0.375-0.098-0.017-0.012-0.046-0.069-0.046-0.092-0.012-0.202-0.012-0.779-0.012-1.165 0-0.311-0.052-0.583-0.185-0.773-0.156-0.219-0.381-0.346-0.669-0.346-0.254 0-0.594 0.173-0.877 0.415-0.006 0.006-0.052 0.046-0.046-0.017 0-0.063 0.012-0.19 0.017-0.277 0.006-0.081-0.040-0.121-0.040-0.121-0.185 0.092-0.704 0.213-0.894 0.231-0.138 0.029-0.173 0.162-0.029 0.208h0.006c0.156 0.046 0.259 0.098 0.34 0.15 0.058 0.046 0.052 0.11 0.052 0.162 0.006 0.433 0.006 1.096-0.011 1.459-0.006 0.144-0.046 0.196-0.15 0.219l0.012-0.006c-0.081 0.017-0.144 0.035-0.242 0.046-0.035 0.035-0.035 0.219 0 0.26 0.063 0 0.398-0.017 0.675-0.017 0.381 0 0.577 0.017 0.675 0.017 0.040-0.046 0.052-0.219 0.029-0.26-0.11-0.006-0.19-0.017-0.265-0.040-0.104-0.023-0.133-0.075-0.139-0.196-0.011-0.306-0.011-0.952-0.011-1.39 0-0.121 0.035-0.179 0.069-0.213 0.133-0.115 0.346-0.196 0.536-0.196 0.185 0 0.306 0.058 0.398 0.133 0.127 0.104 0.167 0.254 0.185 0.363 0.029 0.248 0.017 0.738 0.017 1.165 0 0.231-0.017 0.288-0.104 0.317-0.040 0.017-0.144 0.040-0.265 0.052-0.040 0.040-0.029 0.219 0 0.26 0.167 0 0.363-0.017 0.652-0.017 0.358 0 0.588 0.017 0.681 0.017 0.029-0.035 0.040-0.202 0.017-0.248zM18.6 16.508c-0.306 0-0.496 0.236-0.496 0.605 0 0.375 0.167 0.808 0.64 0.808 0.081 0 0.231-0.035 0.3-0.115 0.11-0.104 0.185-0.311 0.185-0.531 0-0.479-0.236-0.767-0.629-0.767zM18.559 19.058c-0.115 0-0.196 0.035-0.248 0.064-0.242 0.156-0.352 0.306-0.352 0.485 0 0.167 0.063 0.3 0.202 0.415 0.167 0.144 0.398 0.213 0.692 0.213 0.588 0 0.848-0.317 0.848-0.629 0-0.219-0.11-0.363-0.334-0.444-0.162-0.069-0.456-0.104-0.808-0.104zM18.6 20.557c-0.352 0-0.606-0.075-0.825-0.242-0.213-0.162-0.306-0.404-0.306-0.571 0-0.046 0.012-0.173 0.115-0.288 0.063-0.069 0.202-0.202 0.531-0.427 0.012-0.006 0.017-0.012 0.017-0.023s-0.012-0.023-0.023-0.029c-0.271-0.104-0.352-0.271-0.375-0.363v-0.012c-0.006-0.035-0.017-0.069 0.035-0.104 0.040-0.029 0.098-0.063 0.161-0.104 0.098-0.058 0.202-0.121 0.265-0.173 0.012-0.012 0.012-0.023 0.012-0.035s-0.012-0.023-0.023-0.029c-0.404-0.133-0.605-0.433-0.605-0.883 0-0.294 0.133-0.559 0.369-0.727 0.162-0.127 0.565-0.283 0.831-0.283h0.017c0.271 0.006 0.421 0.063 0.634 0.138 0.115 0.040 0.225 0.058 0.375 0.058 0.225 0 0.323-0.069 0.404-0.15 0.006 0.012 0.017 0.040 0.023 0.115s-0.017 0.185-0.075 0.265c-0.046 0.063-0.15 0.11-0.254 0.11h-0.029c-0.104-0.012-0.15-0.023-0.15-0.023l-0.023 0.012c-0.006 0.012 0 0.023 0.006 0.040l0.006 0.012c0.012 0.052 0.035 0.208 0.035 0.248 0 0.473-0.19 0.68-0.392 0.836-0.196 0.144-0.421 0.236-0.675 0.26-0.006 0-0.029 0-0.081 0.006-0.029 0-0.069 0.006-0.075 0.006h-0.006c-0.046 0.012-0.161 0.069-0.161 0.167 0 0.087 0.052 0.19 0.3 0.208 0.052 0.006 0.104 0.006 0.162 0.012 0.329 0.023 0.738 0.052 0.929 0.115 0.265 0.098 0.433 0.334 0.433 0.617 0 0.427-0.306 0.825-0.813 1.073-0.248 0.11-0.496 0.167-0.767 0.167zM21.887 16.537c-0.121 0-0.231 0.029-0.311 0.086-0.225 0.138-0.34 0.415-0.34 0.819 0 0.756 0.381 1.286 0.923 1.286 0.162 0 0.288-0.046 0.398-0.138 0.167-0.139 0.254-0.415 0.254-0.802 0-0.75-0.375-1.252-0.923-1.252zM21.991 19.006c-0.98 0-1.332-0.721-1.332-1.396 0-0.473 0.19-0.836 0.571-1.096 0.271-0.167 0.594-0.259 0.883-0.259 0.75 0 1.275 0.536 1.275 1.309 0 0.525-0.208 0.94-0.606 1.194-0.19 0.127-0.519 0.248-0.79 0.248h0zM11.713 16.537c-0.121 0-0.231 0.029-0.312 0.087-0.225 0.138-0.34 0.415-0.34 0.819 0 0.756 0.381 1.286 0.923 1.286 0.162 0 0.288-0.046 0.398-0.138 0.167-0.139 0.254-0.415 0.254-0.802 0-0.75-0.369-1.252-0.923-1.252zM11.817 19.006c-0.98 0-1.332-0.721-1.332-1.396 0-0.473 0.19-0.836 0.571-1.096 0.271-0.167 0.594-0.259 0.883-0.259 0.75 0 1.275 0.536 1.275 1.309 0 0.525-0.208 0.94-0.606 1.194-0.185 0.127-0.513 0.248-0.79 0.248zM5.225 18.948c-0.012-0.017-0.023-0.069-0.017-0.133 0-0.046 0.012-0.075 0.017-0.087 0.121-0.017 0.185-0.035 0.254-0.052 0.115-0.029 0.162-0.092 0.167-0.236 0.017-0.346 0.017-1.004 0.012-1.459v-0.012c0-0.052 0-0.115-0.063-0.162-0.092-0.058-0.202-0.11-0.346-0.15-0.052-0.017-0.087-0.046-0.081-0.081 0-0.035 0.035-0.075 0.11-0.087 0.19-0.017 0.686-0.138 0.882-0.225 0.012 0.012 0.029 0.046 0.029 0.092l-0.006 0.063c-0.006 0.064-0.012 0.139-0.012 0.213 0 0.023 0.023 0.040 0.046 0.040 0.012 0 0.023-0.006 0.035-0.012 0.369-0.288 0.704-0.392 0.877-0.392 0.283 0 0.502 0.133 0.669 0.41 0.011 0.017 0.023 0.023 0.040 0.023 0.011 0 0.029-0.006 0.035-0.017 0.34-0.26 0.681-0.415 0.905-0.415 0.536 0 0.854 0.398 0.854 1.073 0 0.19 0 0.438-0.006 0.663 0 0.202-0.006 0.386-0.006 0.519 0 0.029 0.040 0.121 0.104 0.138 0.081 0.040 0.19 0.058 0.335 0.081h0.006c0.012 0.040-0.011 0.19-0.035 0.219-0.035 0-0.087 0-0.144-0.006-0.131-0.007-0.284-0.011-0.438-0.012h-0c-0.358 0-0.542 0.006-0.721 0.017-0.011-0.046-0.017-0.185 0-0.219 0.104-0.017 0.156-0.035 0.219-0.052 0.115-0.035 0.144-0.087 0.15-0.236 0-0.11 0.023-1.044-0.012-1.269-0.035-0.231-0.208-0.502-0.588-0.502-0.144 0-0.369 0.058-0.588 0.225-0.011 0.012-0.023 0.040-0.023 0.058v0.006c0.023 0.121 0.023 0.26 0.023 0.473v0.375c0 0.26-0.006 0.502 0 0.686 0 0.127 0.075 0.156 0.138 0.179 0.035 0.006 0.058 0.012 0.086 0.017 0.052 0.012 0.104 0.023 0.185 0.040 0.012 0.023 0.012 0.098-0.006 0.162-0.006 0.035-0.017 0.052-0.023 0.058-0.196-0.006-0.398-0.012-0.692-0.012-0.087 0-0.237 0.006-0.363 0.006-0.104 0-0.202 0.006-0.26 0.006-0.006-0.012-0.017-0.052-0.017-0.115 0-0.052 0.012-0.092 0.023-0.104 0.029-0.006 0.052-0.012 0.081-0.012 0.069-0.012 0.127-0.023 0.184-0.035 0.098-0.029 0.133-0.081 0.138-0.208 0.017-0.288 0.035-1.113-0.006-1.321-0.069-0.334-0.26-0.502-0.565-0.502-0.179 0-0.404 0.087-0.588 0.225-0.029 0.023-0.052 0.081-0.052 0.133v0.34c0 0.415 0 0.934 0.006 1.159 0.006 0.069 0.029 0.15 0.162 0.179 0.029 0.006 0.075 0.017 0.133 0.023l0.104 0.017c0.012 0.035 0.006 0.173-0.017 0.219-0.058 0-0.127-0.006-0.208-0.006-0.121-0.006-0.277-0.012-0.45-0.012-0.202 0-0.346 0.006-0.461 0.012-0.081-0.012-0.144-0.012-0.213-0.012z"></path>
<path fill="#fff" style="fill: var(--color2, #fff)" d="M2.191 20.332l-0.236-0.081s0.029-1.205-0.404-1.292c-0.288-0.335 0.046-14.188 1.084-0.046 0 0-0.358 0.179-0.421 0.485-0.069 0.3-0.023 0.934-0.023 0.934z"></path>
<path fill="#a6a385" style="fill: var(--color5, #a6a385)" d="M2.191 20.332l-0.236-0.081s0.029-1.205-0.404-1.292c-0.288-0.335 0.046-14.188 1.084-0.046 0 0-0.358 0.179-0.421 0.485-0.069 0.3-0.023 0.934-0.023 0.934z"></path>
<path fill="#fff" style="fill: var(--color2, #fff)" d="M2.318 19.167s2.071-1.361 1.586-4.193c-0.467-2.059-1.569-2.734-1.69-2.993-0.133-0.185-0.26-0.508-0.26-0.508l0.087 5.727c0 0.006-0.179 1.753 0.277 1.967z"></path>
<path fill="#499d4a" style="fill: var(--color6, #499d4a)" d="M2.318 19.167s2.071-1.361 1.586-4.193c-0.467-2.059-1.569-2.734-1.69-2.993-0.133-0.185-0.26-0.508-0.26-0.508l0.087 5.727c0 0.006-0.179 1.753 0.277 1.967z"></path>
<path fill="#fff" style="fill: var(--color2, #fff)" d="M1.833 19.242s-1.944-1.327-1.828-3.662c0.11-2.336 1.482-3.484 1.748-3.691 0.173-0.185 0.179-0.254 0.19-0.438 0.121 0.26 0.098 3.882 0.115 4.308 0.052 1.644-0.092 3.172-0.225 3.484z"></path>
<path fill="#58aa50" style="fill: var(--color7, #58aa50)" d="M1.833 19.242s-1.944-1.327-1.828-3.662c0.11-2.336 1.482-3.484 1.748-3.691 0.173-0.185 0.179-0.254 0.19-0.438 0.121 0.26 0.098 3.882 0.115 4.308 0.052 1.644-0.092 3.172-0.225 3.484z"></path>
</symbol>
<symbol id="icon-mail" viewBox="0 0 32 32">
<path d="M31.563 4.989c-0.451-0.66-1.209-1.097-2.066-1.097h-26.994c-0.838 0-1.579 0.421-2.034 1.058l15.58 12.991 15.513-12.953z"></path>
<path d="M0.003 7.164v18.444c0 1.375 1.125 2.5 2.5 2.5h26.994c1.375 0 2.5-1.125 2.5-2.5v-18.378l-15.947 13.315-16.047-13.381z"></path>
</symbol>
<symbol id="icon-downloud" viewBox="0 0 32 32">
<path fill="none" stroke="#fff" style="stroke: var(--color12, #fff)" stroke-linejoin="round" stroke-linecap="round" stroke-miterlimit="4" stroke-width="2.4" d="M1.6 23.2v3.6c0 0.955 0.379 1.87 1.054 2.546s1.591 1.054 2.546 1.054h21.6c0.955 0 1.87-0.379 2.546-1.054s1.054-1.591 1.054-2.546v-3.6M23.2 16l-7.2 7.2M16 23.2l-7.2-7.2M16 23.2v-21.6"></path>
</symbol>
<symbol id="icon-github_git" viewBox="0 0 32 32">
<path d="M16 0c-8.84 0-16 7.16-16 16 0 7.080 4.58 13.060 10.94 15.18 0.8 0.14 1.1-0.34 1.1-0.76 0-0.38-0.020-1.64-0.020-2.98-4.020 0.74-5.060-0.98-5.38-1.88-0.18-0.46-0.96-1.88-1.64-2.26-0.56-0.3-1.36-1.040-0.020-1.060 1.26-0.020 2.16 1.16 2.46 1.64 1.44 2.42 3.74 1.74 4.66 1.32 0.14-1.040 0.56-1.74 1.020-2.14-3.56-0.4-7.28-1.78-7.28-7.9 0-1.74 0.62-3.18 1.64-4.3-0.16-0.4-0.72-2.040 0.16-4.24 0 0 1.34-0.42 4.4 1.64 1.28-0.36 2.64-0.54 4-0.54s2.72 0.18 4 0.54c3.060-2.080 4.4-1.64 4.4-1.64 0.88 2.2 0.32 3.84 0.16 4.24 1.020 1.12 1.64 2.54 1.64 4.3 0 6.14-3.74 7.5-7.3 7.9 0.58 0.5 1.080 1.46 1.080 2.96 0 2.14-0.020 3.86-0.020 4.4 0 0.42 0.3 0.92 1.1 0.76 3.176-1.072 5.936-3.114 7.892-5.837s3.007-5.991 3.008-9.343c0-8.84-7.16-16-16-16z"></path>
</symbol>
<symbol id="icon-telegram" viewBox="0 0 32 32">
<path d="M29.402 2.839l-28.351 10.989c-1.141 0.512-1.527 1.537-0.276 2.093l7.273 2.323 17.585-10.924c0.96-0.686 1.943-0.503 1.097 0.251l-15.104 13.746-0.474 5.817c0.439 0.898 1.244 0.902 1.757 0.456l4.179-3.974 7.157 5.387c1.662 0.989 2.567 0.351 2.924-1.462l4.694-22.342c0.487-2.232-0.344-3.215-2.462-2.36z"></path>
</symbol>
<symbol id="icon-linkedin-2" viewBox="0 0 32 32">
<path d="M26.24 2.56h-20.48c-1.766 0-3.2 1.434-3.2 3.2v20.48c0 1.766 1.434 3.2 3.2 3.2h20.48c1.766 0 3.2-1.434 3.2-3.2v-20.48c0-1.766-1.434-3.2-3.2-3.2zM10.88 12.8v12.16h-3.84v-12.16h3.84zM7.040 9.261c0-0.896 0.768-1.581 1.92-1.581s1.875 0.685 1.92 1.581c0 0.896-0.717 1.619-1.92 1.619-1.152 0-1.92-0.723-1.92-1.619zM24.96 24.96h-3.84c0 0 0-5.926 0-6.4 0-1.28-0.64-2.56-2.24-2.586h-0.051c-1.549 0-2.189 1.318-2.189 2.586 0 0.582 0 6.4 0 6.4h-3.84v-12.16h3.84v1.638c0 0 1.235-1.638 3.718-1.638 2.541 0 4.602 1.747 4.602 5.286v6.874z"></path>
</symbol>
<symbol id="icon-icons8-github" viewBox="0 0 32 32">
<path d="M16 3c-7.18 0-13 5.82-13 13 0 6.139 4.256 11.28 9.977 12.643-0.296-0.070-0.589-0.149-0.877-0.239v-2.979c0 0-0.488 0.163-1.137 0.163-1.819 0-2.574-1.622-2.763-2.438-0.114-0.497-0.413-0.967-0.734-1.255-0.383-0.342-0.563-0.343-0.566-0.46-0.005-0.245 0.329-0.235 0.487-0.235 0.813 0 1.428 0.864 1.714 1.311 0.709 1.104 1.469 1.288 1.861 1.288 0.488 0 0.909-0.073 1.198-0.213 0.134-0.944 0.554-1.785 1.239-2.387-3.049-0.61-5.2-2.358-5.2-5.2 0-1.464 0.588-2.809 1.566-3.896-0.1-0.284-0.267-0.857-0.267-1.791 0-0.617 0.043-1.376 0.325-2.113 0 0 1.854 0.013 3.603 1.669 0.807-0.235 1.671-0.369 2.572-0.369s1.766 0.134 2.572 0.369c1.748-1.656 3.602-1.669 3.602-1.669 0.284 0.737 0.325 1.495 0.325 2.113 0 1.008-0.134 1.595-0.216 1.848 0.949 1.076 1.516 2.401 1.516 3.839 0 2.842-2.151 4.59-5.2 5.2 0.814 0.715 1.3 1.756 1.3 2.925v4.279c-0.288 0.090-0.581 0.169-0.878 0.239 5.721-1.363 9.977-6.505 9.977-12.643 0-7.18-5.82-13-13-13zM16.907 28.965c-0.299 0.021-0.602 0.035-0.907 0.035 0.305 0 0.607-0.015 0.907-0.035zM18.893 28.673c-0.582 0.133-1.178 0.226-1.788 0.277 0.609-0.052 1.206-0.145 1.788-0.277zM16 29c-0.305 0-0.607-0.014-0.906-0.035 0.3 0.020 0.601 0.035 0.906 0.035zM14.894 28.95c-0.608-0.052-1.206-0.145-1.787-0.277 0.582 0.132 1.178 0.226 1.787 0.277z"></path>
</symbol>
</defs>
</svg>
